<svg xmlns="http://www.w3.org/2000/svg" viewBox="0 0 30 30">
  <path fill="#02B3E4" fill-rule="evenodd" d="M28,0 L30,1 L30,14 C30,19.5518873 27.1103013,22.6956924 24.0047842,24.0998853 L24.0093994,24.1000004 L16.3884366,28.4885624 C16.3296668,28.5231221 16.270677,28.5570892 16.21148,28.5904636 L16.125061,28.6402283 L16.1268658,28.6376869 C14.4828894,29.5458956 12.6846816,30 11,30 C6,30 0,26 0,18 L0,6 L10,0 L12,1 L12,14 C12,20.9399584 16.5152834,22.6120862 19.0175421,22.9333683 C19.6257864,21.6215901 20,19.9979019 20,18 L20,5 L28,0 Z M28,2.25 L22,6 L22,18 C22,19.8526446 21.6782226,21.4907709 21.1216048,22.914379 C23.6482233,22.5492182 28,20.8131455 28,14 L28,2.25 Z M2,7 L2,18 C2,26 8,28 11,28 C12.8587063,28 15.869009,27.2322691 17.8904286,24.745483 C14.1817274,23.8726359 10,20.6787044 10,14 L10,2.2 L2,7 Z"/>
</svg>
